# xmcd CD database file
#
# Track frame offsets:
#	150
#	25282
#	44866
#	59721
#	94257
#	127390
#	155100
#	198187
#	231687
#	255602
#
# Disc length: 3710 seconds
#
# Revision: 0
# Processed by: cddbd v1.5.1PL0 Copyright (c) Steve Scherf et al.
# Submitted via: CDex 1.51
#
DISCID=a20e7c0a
DTITLE=Orchestra Jazz Atipica Bonamici Group-One - Disordini Al Confine
DYEAR=2002
DGENRE=Jazz
TTITLE0=Agorà
TTITLE1=Jump Monk
TTITLE2=Self Portrait In Three Colors
TTITLE3=Tarantella Esagonale
TTITLE4=Ballata per Hrabal
TTITLE5=Baloo
TTITLE6=Portovenere
TTITLE7=A Night In Tunisia
TTITLE8=Take The "A" Train
TTITLE9=Boogie Stop Shuffle
EXTD=YEAR: 2002
EXTT0=
EXTT1=
EXTT2=
EXTT3=
EXTT4=
EXTT5=
EXTT6=
EXTT7=
EXTT8=
EXTT9=
PLAYORDER=
